<svg width="20" height="20" viewBox="0 0 20 20" fill="none" xmlns="http://www.w3.org/2000/svg">
<path d="M13.9912 3.18262C14.2186 3.18262 14.4365 3.22894 14.6426 3.32031C14.8502 3.41247 15.0228 3.54927 15.1582 3.72949L16.4697 5.31836C16.5858 5.4531 16.6735 5.60454 16.7314 5.77148C16.7888 5.93615 16.8174 6.10827 16.8174 6.28711V15.1914C16.8174 15.6102 16.6438 15.9861 16.3154 16.3145C15.9872 16.6425 15.6119 16.8154 15.1934 16.8154L4.80859 16.8164C4.38941 16.8163 4.01384 16.6427 3.68555 16.3145C3.35736 15.9862 3.18365 15.6111 3.18359 15.1924V6.23828C3.18359 6.05985 3.21259 5.88919 3.27051 5.72852C3.32865 5.56734 3.41605 5.41983 3.53125 5.28613L4.82812 3.72949C4.96265 3.55015 5.13106 3.41263 5.33301 3.32031C5.53449 3.22822 5.75067 3.18262 5.97852 3.18262H13.9912ZM4.31738 15.3203C4.31738 15.4343 4.35292 15.518 4.41797 15.583C4.48286 15.6477 4.56612 15.6826 4.68066 15.6826H15.3213C15.4353 15.6826 15.5189 15.6481 15.584 15.583C15.649 15.518 15.6836 15.4343 15.6836 15.3203V6.65625H4.31738V15.3203ZM10.5674 8.66406V12.3682L12.167 10.7686L12.2734 10.874L12.8633 11.4648L12.9697 11.5703L12.8633 11.6768L10.1064 14.4326L10.001 14.5381L9.89453 14.4326L7.1377 11.6768L7.03223 11.5703L7.1377 11.4648L7.72754 10.874L7.83398 10.7686L7.94043 10.874L9.43359 12.3672V8.66406H10.5674ZM5.99414 4.31641C5.94212 4.31641 5.89088 4.32709 5.83984 4.35059C5.78591 4.37542 5.74019 4.4084 5.70117 4.44824L4.80469 5.52344H15.1816L14.2842 4.44531C14.2437 4.40583 14.1977 4.37443 14.1455 4.35059C14.0952 4.32767 14.0434 4.31641 13.9902 4.31641H5.99414Z" fill="#787777" stroke="#787777" stroke-width="0.3"/>
</svg>
