<svg width="48" height="40" viewBox="0 0 48 40" fill="none" xmlns="http://www.w3.org/2000/svg">
<path d="M0 8C0 3.58172 3.58172 0 8 0H40C44.4183 0 48 3.58172 48 8V32C48 36.4183 44.4183 40 40 40H8C3.58172 40 0 36.4183 0 32V8Z" fill="url(#paint0_linear_2879_541)"/>
<path d="M8 0.5H40C44.1421 0.5 47.5 3.85786 47.5 8V32C47.5 36.1421 44.1421 39.5 40 39.5H8C3.85786 39.5 0.5 36.1421 0.5 32V8C0.5 3.85786 3.85786 0.5 8 0.5Z" stroke="url(#paint1_linear_2879_541)" stroke-opacity="0.3"/>
<path fill-rule="evenodd" clip-rule="evenodd" d="M20.597 8.00093C21.1657 7.98907 21.731 8.09104 22.2597 8.30083C22.7884 8.51062 23.2697 8.824 23.6755 9.22254C23.7906 9.33552 23.8989 9.45468 24 9.57941C24.1011 9.45468 24.2094 9.33552 24.3245 9.22254C24.7303 8.824 25.2116 8.51062 25.7403 8.30083C26.269 8.09104 26.8343 7.98907 27.403 8.00093C27.9716 8.01278 28.5322 8.13821 29.0517 8.36984C29.5712 8.60148 30.0391 8.93464 30.4279 9.34975C30.8168 9.76485 31.1187 10.2535 31.3159 10.787C31.4271 11.0881 31.5038 11.3999 31.5449 11.7167C32.0742 11.9315 32.5672 12.23 33.0046 12.6021C33.6253 13.1301 34.1178 13.7924 34.4446 14.5388C34.7714 15.2853 34.9241 16.0963 34.891 16.9105C34.8681 17.475 34.7563 18.0307 34.5612 18.5576C34.9844 19.0124 35.3268 19.5386 35.5714 20.1137C35.914 20.9189 36.0546 21.7956 35.981 22.6675C35.9074 23.5394 35.6218 24.3801 35.1492 25.1165C34.7883 25.6787 34.3267 26.1672 33.7893 26.5582C33.7963 27.0832 33.7262 27.6075 33.5805 28.1143C33.3775 28.8197 33.032 29.4761 32.5654 30.0428C32.0988 30.6096 31.521 31.0746 30.8676 31.4093C30.2142 31.744 29.4991 31.9412 28.7665 31.9887C28.034 32.0363 27.2994 31.9331 26.6082 31.6857C25.9171 31.4382 25.284 31.0518 24.748 30.5501C24.4677 30.2877 24.2171 29.9967 24 29.6825C23.7829 29.9967 23.5323 30.2877 23.252 30.5501C22.716 31.0518 22.0829 31.4382 21.3918 31.6857C20.7006 31.9331 19.966 32.0363 19.2335 31.9887C18.5009 31.9412 17.7858 31.744 17.1324 31.4093C16.479 31.0746 15.9012 30.6096 15.4346 30.0428C14.968 29.4761 14.6225 28.8197 14.4195 28.1143C14.2738 27.6075 14.2037 27.0832 14.2107 26.5582C13.6733 26.1672 13.2117 25.6787 12.8508 25.1165C12.3782 24.3801 12.0926 23.5394 12.019 22.6675C11.9454 21.7956 12.086 20.9189 12.4286 20.1137C12.6732 19.5386 13.0156 19.0124 13.4388 18.5576C13.2437 18.0307 13.1319 17.475 13.109 16.9105C13.0759 16.0963 13.2286 15.2853 13.5554 14.5388C13.8822 13.7924 14.3747 13.1301 14.9954 12.6021C15.4328 12.23 15.9258 11.9315 16.4551 11.7167C16.4962 11.3999 16.5729 11.0881 16.6841 10.787C16.8813 10.2535 17.1832 9.76485 17.5721 9.34975C17.9609 8.93464 18.4288 8.60148 18.9483 8.36984C19.4678 8.13821 20.0284 8.01278 20.597 8.00093ZM16.6752 13.7311C16.5188 13.8261 16.3697 13.9337 16.2295 14.053C15.8289 14.3937 15.5112 14.8211 15.3002 15.3028C15.0893 15.7845 14.9908 16.3078 15.0122 16.8332C15.0201 17.0275 15.0443 17.2202 15.0842 17.4093C15.4677 17.3494 15.8648 17.5293 16.0641 17.8884C16.3193 18.3483 16.1533 18.928 15.6934 19.1833C15.5147 19.2824 15.345 19.3973 15.1865 19.5264C15.176 19.5349 15.1654 19.5432 15.1546 19.5512C14.7309 19.9035 14.3972 20.352 14.1813 20.8593C13.9603 21.3789 13.8696 21.9446 13.917 22.5073C13.9645 23.0699 14.1488 23.6124 14.4538 24.0876C14.7588 24.5628 15.1753 24.9563 15.6671 25.2339C15.6771 25.2395 15.6869 25.2452 15.6965 25.2511C16.2094 25.5339 16.7858 25.6822 17.3719 25.6819C17.8979 25.6817 18.3245 26.1079 18.3247 26.6339C18.325 27.1599 17.8988 27.5865 17.3728 27.5867C16.9823 27.5869 16.5946 27.5445 16.2163 27.4613C16.2267 27.5036 16.238 27.5457 16.2501 27.5876C16.381 28.0429 16.6039 28.4664 16.9051 28.8321C17.2062 29.1979 17.5791 29.498 18.0008 29.714C18.4225 29.93 18.884 30.0573 19.3568 30.088C19.8296 30.1186 20.3037 30.0521 20.7498 29.8924C21.1958 29.7327 21.6044 29.4832 21.9503 29.1595C22.2962 28.8357 22.572 28.4445 22.7607 28.01C22.9493 27.5757 23.0469 27.1074 23.0475 26.6339V20.7813C22.4589 21.3229 21.7638 21.7423 21.0021 22.0102C20.5059 22.1847 19.9622 21.924 19.7877 21.4278C19.6131 20.9316 19.8739 20.3879 20.3701 20.2133C21.1198 19.9496 21.7745 19.4695 22.2514 18.8338C22.7227 18.2055 22.9994 17.453 23.0475 16.6695V12.2757L23.0475 12.2729C23.0484 11.9581 22.9864 11.6463 22.8651 11.3558C22.7437 11.0654 22.5655 10.8021 22.3409 10.5815C22.1163 10.3609 21.8498 10.1874 21.5571 10.0713C21.2645 9.95516 20.9515 9.89871 20.6367 9.90527C20.3219 9.91184 20.0116 9.98127 19.724 10.1095C19.4365 10.2377 19.1774 10.4221 18.9622 10.6519C18.747 10.8817 18.5799 11.1521 18.4708 11.4474C18.3616 11.7427 18.3126 12.0568 18.3267 12.3712L18.3268 12.3748C18.3424 12.7554 18.4499 13.1267 18.6402 13.457C18.9028 13.9127 18.7462 14.4951 18.2905 14.7577C17.8347 15.0202 17.2524 14.8637 16.9898 14.4079C16.8649 14.1912 16.7598 13.9647 16.6752 13.7311ZM24.9525 26.6339C24.9531 27.1074 25.0507 27.5757 25.2393 28.01C25.428 28.4445 25.7038 28.8357 26.0497 29.1595C26.3956 29.4832 26.8042 29.7327 27.2502 29.8924C27.6963 30.0521 28.1704 30.1186 28.6432 30.088C29.116 30.0573 29.5775 29.93 29.9992 29.714C30.4209 29.498 30.7938 29.1979 31.0949 28.8321C31.396 28.4664 31.619 28.0429 31.7499 27.5876C31.762 27.5457 31.7733 27.5036 31.7837 27.4614C31.4055 27.5445 31.018 27.5869 30.6276 27.5867C30.1016 27.5865 29.6754 27.1599 29.6757 26.6339C29.6759 26.1079 30.1025 25.6817 30.6285 25.6819C31.2132 25.6822 31.7881 25.5346 32.3001 25.2532C32.3109 25.2466 32.3218 25.2401 32.3329 25.2339C32.8247 24.9563 33.2412 24.5628 33.5462 24.0876C33.8512 23.6124 34.0355 23.0699 34.083 22.5073C34.1304 21.9446 34.0397 21.3789 33.8187 20.8593C33.6025 20.3512 33.2681 19.9021 32.8434 19.5496C32.8334 19.5421 32.8235 19.5343 32.8137 19.5264C32.6552 19.3973 32.4856 19.2825 32.3068 19.1833C31.8469 18.928 31.6809 18.3483 31.9361 17.8884C32.1354 17.5293 32.5324 17.3494 32.9158 17.4092C32.9557 17.2201 32.9799 17.0275 32.9878 16.8332C33.0092 16.3078 32.9107 15.7845 32.6998 15.3028C32.4888 14.8211 32.1711 14.3937 31.7705 14.053C31.6304 13.9338 31.4816 13.8264 31.3254 13.7314C31.2406 13.9651 31.1352 14.1917 31.0101 14.4085C30.7472 14.8641 30.1647 15.0202 29.7092 14.7573C29.2536 14.4944 29.0974 13.912 29.3604 13.4564C29.544 13.1381 29.6508 12.7816 29.6724 12.4151C29.6724 12.4006 29.6727 12.3859 29.6733 12.3712C29.6874 12.0568 29.6384 11.7427 29.5292 11.4474C29.4201 11.1521 29.253 10.8817 29.0378 10.6519C28.8226 10.4221 28.5635 10.2377 28.276 10.1095C27.9884 9.98127 27.6781 9.91184 27.3633 9.90527C27.0485 9.89871 26.7355 9.95516 26.4429 10.0713C26.1502 10.1874 25.8837 10.3609 25.6591 10.5815C25.4345 10.8021 25.2563 11.0654 25.1349 11.3558C25.0136 11.6463 24.9516 11.9581 24.9525 12.2729L24.9525 12.2757V16.6666C25.0001 17.4512 25.2769 18.2047 25.7488 18.8338C26.2256 19.4695 26.8803 19.9496 27.6301 20.2133C28.1263 20.3879 28.387 20.9316 28.2125 21.4278C28.038 21.924 27.4943 22.1847 26.9981 22.0102C26.2363 21.7423 25.5411 21.3228 24.9525 20.7811V26.6339Z" fill="url(#paint2_linear_2879_541)"/>
<defs>
<linearGradient id="paint0_linear_2879_541" x1="1.70169" y1="40" x2="25.5825" y2="-9.91171" gradientUnits="userSpaceOnUse">
<stop stop-color="#011913"/>
<stop offset="1" stop-color="#004534"/>
</linearGradient>
<linearGradient id="paint1_linear_2879_541" x1="24" y1="0" x2="24" y2="40" gradientUnits="userSpaceOnUse">
<stop stop-color="#D9D9D9"/>
<stop offset="1" stop-color="#737373"/>
</linearGradient>
<linearGradient id="paint2_linear_2879_541" x1="12" y1="14.5539" x2="36" y2="25.4461" gradientUnits="userSpaceOnUse">
<stop stop-color="#17F4BF"/>
<stop offset="1" stop-color="#00A57D"/>
</linearGradient>
</defs>
</svg>
