<svg width="25" height="21" viewBox="0 0 25 21" fill="none" xmlns="http://www.w3.org/2000/svg">
<path d="M14.8069 0.799805H10.1286C5.71855 0.799805 3.51355 0.799805 2.14272 2.16714C1.19772 3.10747 0.904884 4.4433 0.812717 6.6203C0.795217 7.05197 0.785884 7.26897 0.866384 7.41247C0.94805 7.55597 1.26888 7.7368 1.91288 8.09614C2.27564 8.29837 2.57781 8.59381 2.78817 8.95192C2.99852 9.31003 3.10943 9.71782 3.10943 10.1331C3.10943 10.5485 2.99852 10.9562 2.78817 11.3144C2.57781 11.6725 2.27564 11.9679 1.91288 12.1701C1.26888 12.5306 0.946884 12.7103 0.866384 12.8538C0.785884 12.9973 0.795217 13.2131 0.813884 13.6448C0.904884 15.823 1.19888 17.1588 2.14272 18.0991C3.51238 19.4665 5.71738 19.4665 10.1286 19.4665H14.8069C19.2169 19.4665 21.4219 19.4665 22.7927 18.0991C23.7377 17.1588 24.0305 15.823 24.1227 13.646C24.1402 13.2143 24.1495 12.9973 24.069 12.8538C23.9874 12.7103 23.6666 12.5306 23.0226 12.1701C22.6598 11.9679 22.3576 11.6725 22.1473 11.3144C21.9369 10.9562 21.826 10.5485 21.826 10.1331C21.826 9.71782 21.9369 9.31003 22.1473 8.95192C22.3576 8.59381 22.6598 8.29837 23.0226 8.09614C23.6666 7.7368 23.9886 7.55597 24.069 7.41247C24.1495 7.26897 24.1402 7.05314 24.1216 6.6203C24.0306 4.4433 23.7366 3.10864 22.7927 2.16714C21.4231 0.799805 19.218 0.799805 14.8069 0.799805Z" stroke="#1E1E1E" stroke-width="1.6"/>
<path d="M8.9668 13.6328L15.9668 6.63281" stroke="#1E1E1E" stroke-width="1.3" stroke-linecap="round"/>
<path d="M16.5514 13.0498C16.5514 13.3592 16.4285 13.656 16.2097 13.8748C15.9909 14.0936 15.6942 14.2165 15.3848 14.2165C15.0753 14.2165 14.7786 14.0936 14.5598 13.8748C14.341 13.656 14.2181 13.3592 14.2181 13.0498C14.2181 12.7404 14.341 12.4436 14.5598 12.2248C14.7786 12.0061 15.0753 11.8831 15.3848 11.8831C15.6942 11.8831 15.9909 12.0061 16.2097 12.2248C16.4285 12.4436 16.5514 12.7404 16.5514 13.0498ZM10.7181 7.21647C10.7181 7.52589 10.5952 7.82264 10.3764 8.04143C10.1576 8.26022 9.86085 8.38314 9.55143 8.38314C9.24201 8.38314 8.94527 8.26022 8.72647 8.04143C8.50768 7.82264 8.38477 7.52589 8.38477 7.21647C8.38477 6.90705 8.50768 6.61031 8.72647 6.39151C8.94527 6.17272 9.24201 6.0498 9.55143 6.0498C9.86085 6.0498 10.1576 6.17272 10.3764 6.39151C10.5952 6.61031 10.7181 6.90705 10.7181 7.21647Z" fill="#1E1E1E"/>
</svg>
