<svg width="25" height="25" viewBox="0 0 25 25" fill="none" xmlns="http://www.w3.org/2000/svg">
<path d="M20.2826 2.78353H17.9492V1.61686C17.9492 1.30744 17.8263 1.0107 17.6075 0.791904C17.3887 0.573112 17.092 0.450195 16.7826 0.450195C16.4731 0.450195 16.1764 0.573112 15.9576 0.791904C15.7388 1.0107 15.6159 1.30744 15.6159 1.61686V2.78353H8.61588V1.61686C8.61588 1.30744 8.49297 1.0107 8.27418 0.791904C8.05538 0.573112 7.75864 0.450195 7.44922 0.450195C7.1398 0.450195 6.84305 0.573112 6.62426 0.791904C6.40547 1.0107 6.28255 1.30744 6.28255 1.61686V2.78353H3.94922C3.02096 2.78353 2.13072 3.15228 1.47435 3.80866C0.817968 4.46503 0.449219 5.35527 0.449219 6.28353V20.2835C0.449219 21.2118 0.817968 22.102 1.47435 22.7584C2.13072 23.4148 3.02096 23.7835 3.94922 23.7835H20.2826C21.2108 23.7835 22.101 23.4148 22.7574 22.7584C23.4138 22.102 23.7826 21.2118 23.7826 20.2835V6.28353C23.7826 5.35527 23.4138 4.46503 22.7574 3.80866C22.101 3.15228 21.2108 2.78353 20.2826 2.78353ZM21.4492 20.2835C21.4492 20.5929 21.3263 20.8897 21.1075 21.1085C20.8887 21.3273 20.592 21.4502 20.2826 21.4502H3.94922C3.6398 21.4502 3.34305 21.3273 3.12426 21.1085C2.90547 20.8897 2.78255 20.5929 2.78255 20.2835V12.1169H21.4492V20.2835ZM21.4492 9.78353H2.78255V6.28353C2.78255 5.97411 2.90547 5.67736 3.12426 5.45857C3.34305 5.23978 3.6398 5.11686 3.94922 5.11686H6.28255V6.28353C6.28255 6.59295 6.40547 6.88969 6.62426 7.10849C6.84305 7.32728 7.1398 7.4502 7.44922 7.4502C7.75864 7.4502 8.05538 7.32728 8.27418 7.10849C8.49297 6.88969 8.61588 6.59295 8.61588 6.28353V5.11686H15.6159V6.28353C15.6159 6.59295 15.7388 6.88969 15.9576 7.10849C16.1764 7.32728 16.4731 7.4502 16.7826 7.4502C17.092 7.4502 17.3887 7.32728 17.6075 7.10849C17.8263 6.88969 17.9492 6.59295 17.9492 6.28353V5.11686H20.2826C20.592 5.11686 20.8887 5.23978 21.1075 5.45857C21.3263 5.67736 21.4492 5.97411 21.4492 6.28353V9.78353Z" fill="#1E1E1E" stroke="white" stroke-width="0.9"/>
</svg>
