<svg width="32" height="32" viewBox="0 0 32 32" fill="none" xmlns="http://www.w3.org/2000/svg">
<path opacity="0.1" d="M18.2231 9.25H13.0269C11.8263 9.25 10.6748 9.72694 9.82589 10.5759C8.97694 11.4248 8.5 12.5763 8.5 13.7769V18.9731C8.5 20.1737 8.97694 21.3252 9.82589 22.1741C10.6748 23.0231 11.8263 23.5 13.0269 23.5H18.2231C19.4237 23.5 20.5752 23.0231 21.4241 22.1741C22.2731 21.3252 22.75 20.1737 22.75 18.9731V13.7769C22.75 12.5763 22.2731 11.4248 21.4241 10.5759C20.5752 9.72694 19.4237 9.25 18.2231 9.25Z" fill="#78829D"/>
<path d="M19.4378 23.7623H11.6464C10.7494 23.7623 9.88914 23.4065 9.25423 22.7729C8.61933 22.1394 8.26168 21.2798 8.25977 20.3829V12.5915C8.25977 11.6933 8.61657 10.8319 9.25168 10.1968C9.8868 9.56171 10.7482 9.20491 11.6464 9.20491H17.322C17.4613 9.22066 17.59 9.28716 17.6834 9.39171C17.7768 9.49627 17.8284 9.63155 17.8284 9.77175C17.8284 9.91195 17.7768 10.0472 17.6834 10.1518C17.59 10.2563 17.4613 10.3228 17.322 10.3386H11.6464C11.0489 10.3386 10.4758 10.576 10.0533 10.9985C9.63081 11.421 9.39345 11.994 9.39345 12.5915V20.3829C9.39536 20.9792 9.63357 21.5504 10.0559 21.9713C10.4782 22.3923 11.0501 22.6286 11.6464 22.6286H19.4378C20.034 22.6286 20.606 22.3923 21.0283 21.9713C21.4506 21.5504 21.6888 20.9792 21.6907 20.3829V14.6062C21.6817 14.5264 21.6896 14.4455 21.714 14.369C21.7383 14.2925 21.7786 14.2219 21.8321 14.162C21.8856 14.1021 21.9512 14.0542 22.0245 14.0214C22.0978 13.9886 22.1772 13.9716 22.2575 13.9716C22.3379 13.9716 22.4173 13.9886 22.4906 14.0214C22.5639 14.0542 22.6295 14.1021 22.683 14.162C22.7365 14.2219 22.7767 14.2925 22.8011 14.369C22.8255 14.4455 22.8334 14.5264 22.8244 14.6062V20.3829C22.8225 21.2798 22.4648 22.1394 21.8299 22.7729C21.195 23.4065 20.3347 23.7623 19.4378 23.7623ZM17.3076 15.4655L22.6078 10.1725V11.9272C22.5987 12.007 22.6067 12.0878 22.631 12.1644C22.6554 12.2409 22.6957 12.3114 22.7492 12.3713C22.8027 12.4312 22.8682 12.4791 22.9416 12.512C23.0149 12.5448 23.0943 12.5617 23.1746 12.5617C23.2549 12.5617 23.3343 12.5448 23.4076 12.512C23.481 12.4791 23.5465 12.4312 23.6 12.3713C23.6535 12.3114 23.6938 12.2409 23.7182 12.1644C23.7425 12.0878 23.7505 12.007 23.7414 11.9272V8.77887C23.7344 8.6375 23.6751 8.50378 23.5751 8.40369C23.475 8.3036 23.3412 8.2443 23.1999 8.2373H20.0443C19.905 8.25305 19.7764 8.31955 19.683 8.42411C19.5896 8.52866 19.538 8.66395 19.538 8.80415C19.538 8.94435 19.5896 9.07963 19.683 9.18419C19.7764 9.28874 19.905 9.35524 20.0443 9.37099H21.8062L16.5061 14.6639C16.4024 14.7716 16.3444 14.9152 16.3444 15.0647C16.3444 15.2142 16.4024 15.3578 16.5061 15.4655C16.5585 15.5185 16.6209 15.5606 16.6897 15.5894C16.7585 15.6181 16.8323 15.6329 16.9068 15.6329C16.9814 15.6329 17.0552 15.6181 17.124 15.5894C17.1928 15.5606 17.2552 15.5185 17.3076 15.4655Z" fill="#78829D"/>
</svg>
