<svg width="40" height="40" viewBox="0 0 40 40" fill="none" xmlns="http://www.w3.org/2000/svg">
<g clip-path="url(#clip0_976_45027)">
<mask id="mask0_976_45027" style="mask-type:luminance" maskUnits="userSpaceOnUse" x="0" y="0" width="40" height="40">
<path d="M39.2614 16.3636H20.625V24.0909H31.3523C30.3523 29 26.1705 31.8182 20.625 31.8182C14.0796 31.8182 8.80682 26.5455 8.80682 20C8.80682 13.4546 14.0796 8.18182 20.625 8.18182C23.4432 8.18182 25.9886 9.18182 27.9886 10.8182L33.8068 5C30.2614 1.90909 25.7159 0 20.625 0C9.53409 0 0.625 8.90909 0.625 20C0.625 31.0909 9.53409 40 20.625 40C30.625 40 39.7159 32.7273 39.7159 20C39.7159 18.8182 39.5341 17.5455 39.2614 16.3636Z" fill="white"/>
</mask>
<g mask="url(#mask0_976_45027)">
<path d="M-1.19336 31.818V8.18164L14.2612 19.9998L-1.19336 31.818Z" fill="#FBBC05"/>
</g>
<mask id="mask1_976_45027" style="mask-type:luminance" maskUnits="userSpaceOnUse" x="0" y="0" width="40" height="40">
<path d="M39.2614 16.3636H20.625V24.0909H31.3523C30.3523 29 26.1705 31.8182 20.625 31.8182C14.0796 31.8182 8.80682 26.5455 8.80682 20C8.80682 13.4546 14.0796 8.18182 20.625 8.18182C23.4432 8.18182 25.9886 9.18182 27.9886 10.8182L33.8068 5C30.2614 1.90909 25.7159 0 20.625 0C9.53409 0 0.625 8.90909 0.625 20C0.625 31.0909 9.53409 40 20.625 40C30.625 40 39.7159 32.7273 39.7159 20C39.7159 18.8182 39.5341 17.5455 39.2614 16.3636Z" fill="white"/>
</mask>
<g mask="url(#mask1_976_45027)">
<path d="M-1.19336 8.18164L14.2612 19.9998L20.6248 14.4544L42.443 10.9089V-1.81836H-1.19336V8.18164Z" fill="#EA4335"/>
</g>
<mask id="mask2_976_45027" style="mask-type:luminance" maskUnits="userSpaceOnUse" x="0" y="0" width="40" height="40">
<path d="M39.2614 16.3636H20.625V24.0909H31.3523C30.3523 29 26.1705 31.8182 20.625 31.8182C14.0796 31.8182 8.80682 26.5455 8.80682 20C8.80682 13.4546 14.0796 8.18182 20.625 8.18182C23.4432 8.18182 25.9886 9.18182 27.9886 10.8182L33.8068 5C30.2614 1.90909 25.7159 0 20.625 0C9.53409 0 0.625 8.90909 0.625 20C0.625 31.0909 9.53409 40 20.625 40C30.625 40 39.7159 32.7273 39.7159 20C39.7159 18.8182 39.5341 17.5455 39.2614 16.3636Z" fill="white"/>
</mask>
<g mask="url(#mask2_976_45027)">
<path d="M-1.19336 31.818L26.0794 10.9089L33.2612 11.818L42.443 -1.81836V41.818H-1.19336V31.818Z" fill="#34A853"/>
</g>
<mask id="mask3_976_45027" style="mask-type:luminance" maskUnits="userSpaceOnUse" x="0" y="0" width="40" height="40">
<path d="M39.2614 16.3636H20.625V24.0909H31.3523C30.3523 29 26.1705 31.8182 20.625 31.8182C14.0796 31.8182 8.80682 26.5455 8.80682 20C8.80682 13.4546 14.0796 8.18182 20.625 8.18182C23.4432 8.18182 25.9886 9.18182 27.9886 10.8182L33.8068 5C30.2614 1.90909 25.7159 0 20.625 0C9.53409 0 0.625 8.90909 0.625 20C0.625 31.0909 9.53409 40 20.625 40C30.625 40 39.7159 32.7273 39.7159 20C39.7159 18.8182 39.5341 17.5455 39.2614 16.3636Z" fill="white"/>
</mask>
<g mask="url(#mask3_976_45027)">
<path d="M42.4432 41.818L14.2614 19.9998L10.625 17.2726L42.4432 8.18164V41.818Z" fill="#00674E"/>
</g>
</g>
<defs>
<clipPath id="clip0_976_45027">
<rect width="40" height="40" fill="white"/>
</clipPath>
</defs>
</svg>
