<svg width="21" height="21" viewBox="0 0 21 21" fill="none" xmlns="http://www.w3.org/2000/svg">
<path d="M7.76503 7.68717C7.96584 7.11631 8.36222 6.63493 8.88395 6.32831C9.40567 6.02169 10.0191 5.9096 10.6155 6.01191C11.212 6.11421 11.753 6.42431 12.1427 6.88727C12.5324 7.35023 12.7457 7.93618 12.7448 8.54134C12.7448 10.2497 10.1823 11.1038 10.1823 11.1038M10.2507 14.5205H10.2592M18.7923 10.2497C18.7923 14.9671 14.9681 18.7913 10.2507 18.7913C5.53322 18.7913 1.70898 14.9671 1.70898 10.2497C1.70898 5.53224 5.53322 1.70801 10.2507 1.70801C14.9681 1.70801 18.7923 5.53224 18.7923 10.2497Z" stroke="#1E1E1E" stroke-width="2" stroke-linecap="round" stroke-linejoin="round"/>
</svg>
