<svg width="22" height="24" viewBox="0 0 22 24" fill="none" xmlns="http://www.w3.org/2000/svg">
<path d="M10.6943 0.100586C11.2587 0.100586 11.7664 0.268352 12.2129 0.604492L20.291 6.7207H20.29C20.6057 6.95226 20.8535 7.24691 21.0312 7.60449H21.0303C21.2092 7.96129 21.2988 8.33987 21.2988 8.73926V21.7773C21.2988 22.2074 21.138 22.5837 20.8213 22.9004C20.5047 23.2169 20.1291 23.3779 19.6992 23.3779H13.873C13.5502 23.3779 13.2698 23.2814 13.0361 23.0889L12.9385 23C12.687 22.7474 12.5615 22.4336 12.5615 22.0654V14.5518H8.83691V22.0654C8.83691 22.4344 8.71156 22.7483 8.45996 23C8.20828 23.2517 7.89455 23.3779 7.52637 23.3779H1.69922C1.26935 23.3779 0.893754 23.2169 0.577148 22.9004C0.260477 22.5837 0.0996094 22.2074 0.0996094 21.7773V8.73926C0.0996745 8.33987 0.189247 7.96129 0.368164 7.60449C0.546832 7.24821 0.792997 6.95312 1.10742 6.72168L9.18555 0.604492C9.6261 0.268313 10.1303 0.100662 10.6943 0.100586ZM10.6992 1.80176C10.5105 1.80176 10.3517 1.8604 10.2178 1.97754L10.2119 1.98242L2.1377 8.06543L2.13867 8.06641C2.03268 8.15488 1.94934 8.25575 1.8877 8.36816C1.82877 8.47569 1.79793 8.59856 1.79883 8.73926V21.6777H7.1377V14.1621C7.13771 13.7938 7.26389 13.4801 7.5166 13.2285C7.76814 12.9762 8.08124 12.8506 8.44922 12.8506H12.9492C13.3174 12.8506 13.6312 12.9761 13.8838 13.2285C14.1355 13.4802 14.2607 13.794 14.2607 14.1621V21.6777H19.5996V8.73926C19.5995 8.60048 19.5694 8.47651 19.5107 8.36621C19.4508 8.25355 19.3685 8.15479 19.2637 8.06934L11.1885 1.98242L11.1826 1.97852C11.0476 1.86101 10.8881 1.80176 10.6992 1.80176Z" fill="#00674E" stroke="#00674E" stroke-width="0.2"/>
</svg>
