<svg width="18" height="18" viewBox="0 0 18 18" fill="none" xmlns="http://www.w3.org/2000/svg">
<path opacity="0.1" d="M11.0762 1.25293C12.2683 1.26694 13.4061 1.74599 14.2422 2.58594C15.0782 3.42587 15.5444 4.55815 15.5391 5.73633V11.0059L15.708 11.0596C16.0118 11.1571 16.2771 11.3477 16.4678 11.6035C16.6585 11.8594 16.7649 12.1683 16.7715 12.4873C16.7781 12.8063 16.6848 13.1193 16.5049 13.3828C16.325 13.6464 16.0671 13.847 15.7676 13.957L14.6504 14.3594C14.5819 14.3851 14.5196 14.4249 14.4678 14.4766C14.4158 14.5285 14.3754 14.5914 14.3496 14.6602L13.9482 15.8311C13.849 16.1357 13.6553 16.4012 13.3955 16.5889C13.1357 16.7765 12.8224 16.8766 12.502 16.875H12.4688C12.1457 16.8747 11.8314 16.7694 11.5732 16.5752C11.3151 16.381 11.127 16.1082 11.0371 15.7979L10.9473 15.5029H5.54395C5.3439 15.5006 5.14423 15.4847 4.94629 15.4561H4.78516C4.61715 15.4286 4.45038 15.3906 4.28711 15.3428L4.14648 15.2969C3.99862 15.2504 3.85697 15.1906 3.71582 15.1309L3.50098 15.0244C3.40015 14.9713 3.29223 14.9112 3.19141 14.8447C3.09065 14.7783 2.98955 14.7117 2.89551 14.6387L2.64062 14.4395L2.44531 14.2598C2.33787 14.1536 2.23061 14.0404 2.12988 13.9209L2.01562 13.7754C1.92152 13.6492 1.83348 13.5223 1.74609 13.3828L1.67969 13.2637C1.57536 13.0872 1.48479 12.9025 1.41016 12.7119C1.19699 12.1838 1.08777 11.6203 1.08789 11.0518V5.73633C1.08259 4.55816 1.54879 3.42586 2.38477 2.58594C3.22079 1.74597 4.35873 1.267 5.55078 1.25293H11.0762Z" fill="#99A1B7"/>
<path d="M8.72234 15.5399H5.04734C3.98109 15.536 2.95976 15.1101 2.2065 14.3555C1.45325 13.6008 1.02932 12.5787 1.02734 11.5124V5.00242C1.02933 3.93686 1.4535 2.91551 2.20696 2.16204C2.96043 1.40858 3.98178 0.984404 5.04734 0.982422H11.5648C12.631 0.982422 13.6535 1.40596 14.4074 2.15985C15.1613 2.91375 15.5848 3.93625 15.5848 5.00242V8.95492C15.5848 9.10411 15.5256 9.24718 15.4201 9.35267C15.3146 9.45816 15.1715 9.51742 15.0223 9.51742C14.8732 9.51742 14.7301 9.45816 14.6246 9.35267C14.5191 9.24718 14.4598 9.10411 14.4598 8.95492V5.00242C14.4598 4.23462 14.1548 3.49827 13.6119 2.95535C13.069 2.41243 12.3326 2.10742 11.5648 2.10742H5.04734C4.28475 2.11532 3.55608 2.42382 3.01964 2.96588C2.48319 3.50795 2.1823 4.23979 2.18234 5.00242V11.5124C2.18234 12.2809 2.48711 13.018 3.02981 13.5622C3.57252 14.1063 4.30885 14.4129 5.07734 14.4149H8.75234C8.90153 14.4149 9.0446 14.4742 9.15009 14.5797C9.25558 14.6852 9.31484 14.8282 9.31484 14.9774C9.31484 15.1266 9.25558 15.2697 9.15009 15.3752C9.0446 15.4807 8.90153 15.5399 8.75234 15.5399H8.72234ZM13.9723 15.9074L14.3998 14.6699C14.4258 14.6016 14.466 14.5395 14.5177 14.4878C14.5694 14.4361 14.6315 14.3959 14.6998 14.3699L15.8773 13.9499C16.2028 13.8336 16.4835 13.6179 16.6798 13.3335C16.8761 13.0491 16.9781 12.7102 16.9715 12.3646C16.9649 12.0191 16.8499 11.6843 16.6428 11.4076C16.4357 11.1309 16.147 10.9262 15.8173 10.8224L11.6848 9.51742C11.3898 9.4254 11.0753 9.41541 10.7751 9.48853C10.4748 9.56166 10.2001 9.71513 9.98042 9.93249C9.76075 10.1499 9.60438 10.4229 9.52808 10.7224C9.45179 11.0219 9.45845 11.3364 9.54734 11.6324L10.8373 15.8474C10.9343 16.1829 11.1372 16.4781 11.4156 16.6889C11.694 16.8998 12.0331 17.015 12.3823 17.0174H12.4198C12.7691 17.0287 13.1127 16.9266 13.3993 16.7266C13.6858 16.5265 13.9 16.2392 14.0098 15.9074H13.9723ZM11.3473 10.5899L15.4798 11.8949C15.5849 11.9294 15.6763 11.9962 15.7412 12.0858C15.806 12.1754 15.8409 12.2831 15.8409 12.3937C15.8409 12.5042 15.806 12.612 15.7412 12.7015C15.6763 12.7911 15.5849 12.8579 15.4798 12.8924L14.3023 13.3124C14.0763 13.3943 13.8714 13.5257 13.7027 13.697C13.534 13.8683 13.4058 14.0752 13.3273 14.3024L12.8998 15.5399C12.8653 15.645 12.7985 15.7364 12.709 15.8012C12.6194 15.8661 12.5117 15.901 12.4011 15.901C12.2905 15.901 12.1828 15.8661 12.0932 15.8012C12.0037 15.7364 11.9369 15.645 11.9023 15.5399L10.6123 11.3174C10.5855 11.2318 10.579 11.1412 10.5933 11.0527C10.6077 10.9641 10.6424 10.8802 10.6948 10.8074C10.7472 10.7346 10.8158 10.675 10.8952 10.6334C10.9747 10.5917 11.0627 10.5691 11.1523 10.5674C11.2305 10.5627 11.309 10.5703 11.3848 10.5899H11.3473Z" fill="#99A1B7"/>
</svg>
