<svg width="376" height="225" viewBox="0 0 376 225" fill="none" xmlns="http://www.w3.org/2000/svg">
<path opacity="0.2" d="M74.8591 195.504C42.3781 197.266 36.1432 131.98 0.5 170.902V224H374.216V116.558C295.474 194.035 286.18 48.8295 244.164 48.8291C203.298 48.8287 212.751 166.76 165.366 129.409C113.882 88.8291 115.46 193.3 74.8591 195.504Z" fill="url(#paint0_linear_1104_2269)"/>
<path d="M0.5 170.902C36.1432 131.98 42.3781 197.266 74.8591 195.504C115.46 193.3 113.882 88.829 165.366 129.409C212.751 166.76 203.298 48.8287 244.164 48.8291C286.18 48.8295 295.474 194.035 374.216 116.558" stroke="#1E1E1E" stroke-linecap="round"/>
<path opacity="0.2" d="M76.4159 174.436C58.1467 208.631 18.1931 221.727 0.5 224.001H374.216V1.63965C281.018 1.63965 247.381 104.863 181.649 100.315C115.917 95.7682 99.2524 131.691 76.4159 174.436Z" fill="url(#paint1_linear_1104_2269)"/>
<path d="M0.5 224.001C18.1931 221.727 58.1467 208.631 76.4159 174.436C99.2524 131.691 115.917 95.7682 181.649 100.315C247.381 104.863 281.018 1.63965 374.216 1.63965" stroke="#1A5D4A" stroke-linecap="round"/>
<path d="M163.291 95.8584C161.118 95.8584 159.344 97.6494 159.344 99.875C159.344 102.101 161.118 103.892 163.291 103.892C165.464 103.891 167.238 102.101 167.238 99.875C167.238 97.6494 165.464 95.8585 163.291 95.8584Z" fill="white" stroke="#1A5D4A"/>
<ellipse cx="373.789" cy="1.7372" rx="1.71057" ry="1.7372" fill="#1A5D4A"/>
<ellipse cx="373.789" cy="116.74" rx="1.71057" ry="1.7372" fill="#1E1E1E"/>
<defs>
<linearGradient id="paint0_linear_1104_2269" x1="187.358" y1="48.8291" x2="187.358" y2="224" gradientUnits="userSpaceOnUse">
<stop stop-color="#00221A"/>
<stop offset="1" stop-color="#00221A" stop-opacity="0"/>
</linearGradient>
<linearGradient id="paint1_linear_1104_2269" x1="187.358" y1="1.63965" x2="187.358" y2="224.001" gradientUnits="userSpaceOnUse">
<stop stop-color="#1A5D4A"/>
<stop offset="1" stop-color="#1A5D4A" stop-opacity="0"/>
</linearGradient>
</defs>
</svg>
