<svg width="42" height="24" viewBox="0 0 42 24" fill="none" xmlns="http://www.w3.org/2000/svg">
<rect width="42" height="24" rx="6" fill="#E8E9EB"/>
<path d="M16.6673 9.33398H11.334V14.6673H16.6673V9.33398Z" stroke="#151924" stroke-linecap="round" stroke-linejoin="round"/>
<path d="M9.33398 18.666C10.434 18.666 11.334 17.766 11.334 16.666V14.666H9.33398C8.23398 14.666 7.33398 15.566 7.33398 16.666C7.33398 17.766 8.23398 18.666 9.33398 18.666Z" stroke="#151924" stroke-linecap="round" stroke-linejoin="round"/>
<path d="M9.33398 9.33398H11.334V7.33398C11.334 6.23398 10.434 5.33398 9.33398 5.33398C8.23398 5.33398 7.33398 6.23398 7.33398 7.33398C7.33398 8.43398 8.23398 9.33398 9.33398 9.33398Z" stroke="#151924" stroke-linecap="round" stroke-linejoin="round"/>
<path d="M16.666 9.33398H18.666C19.766 9.33398 20.666 8.43398 20.666 7.33398C20.666 6.23398 19.766 5.33398 18.666 5.33398C17.566 5.33398 16.666 6.23398 16.666 7.33398V9.33398Z" stroke="#151924" stroke-linecap="round" stroke-linejoin="round"/>
<path d="M18.666 18.666C19.766 18.666 20.666 17.766 20.666 16.666C20.666 15.566 19.766 14.666 18.666 14.666H16.666V16.666C16.666 17.766 17.566 18.666 18.666 18.666Z" stroke="#151924" stroke-linecap="round" stroke-linejoin="round"/>
<path d="M34.594 7.242V8.278H30.352V11.568H33.796V12.604H30.352V17H29.078V7.242H34.594Z" fill="#151924"/>
</svg>
