<svg width="26" height="25" viewBox="0 0 26 25" fill="none" xmlns="http://www.w3.org/2000/svg">
<path d="M9.18195 23.2786C7.25237 22.7023 5.5048 21.6364 4.10928 20.1846C4.55826 19.6521 4.83814 18.9977 4.91311 18.3052C4.98808 17.6127 4.85473 16.9136 4.53012 16.2974C4.20552 15.6811 3.70442 15.1757 3.09095 14.8459C2.47748 14.516 1.77954 14.3767 1.08645 14.4458C0.928194 13.6724 0.848843 12.8849 0.849615 12.0955C0.849615 10.8763 1.03628 9.70034 1.38395 8.5955H1.43295C2.02781 8.59569 2.6129 8.44427 3.13298 8.15552C3.65306 7.86678 4.09096 7.45024 4.40534 6.94525C4.71972 6.44025 4.90021 5.86346 4.92975 5.26934C4.9593 4.67521 4.83693 4.08336 4.5742 3.54967C5.94231 2.27674 7.59618 1.35108 9.39661 0.850586C9.68967 1.42599 10.1362 1.9091 10.6868 2.24647C11.2374 2.58385 11.8706 2.76233 12.5163 2.76217C13.162 2.76233 13.7952 2.58385 14.3458 2.24647C14.8964 1.9091 15.3429 1.42599 15.6359 0.850586C17.4364 1.35108 19.0903 2.27674 20.4584 3.54967C20.1937 4.0871 20.0714 4.68346 20.1033 5.28168C20.1351 5.87989 20.3199 6.45993 20.64 6.96627C20.9601 7.47261 21.4049 7.88831 21.9317 8.17357C22.4584 8.45883 23.0496 8.60411 23.6486 8.5955C24.0037 9.72819 24.1839 10.9084 24.1829 12.0955C24.1829 12.9005 24.1013 13.6868 23.9461 14.4463C23.253 14.3773 22.5551 14.5166 21.9416 14.8465C21.3281 15.1763 20.827 15.6817 20.5024 16.298C20.1778 16.9142 20.0445 17.6133 20.1195 18.3058C20.1944 18.9983 20.4743 19.6527 20.9233 20.1852C19.5277 21.6368 17.7801 22.7025 15.8506 23.2786C15.624 22.5723 15.179 21.9563 14.5798 21.5192C13.9805 21.0821 13.258 20.8466 12.5163 20.8466C11.7746 20.8466 11.052 21.0821 10.4528 21.5192C9.85353 21.9563 9.40854 22.5723 9.18195 23.2786Z" stroke="#1E1E1E" stroke-width="1.7" stroke-linejoin="round"/>
<path d="M12.5169 16.1784C13.0532 16.1784 13.5841 16.0728 14.0796 15.8676C14.575 15.6624 15.0251 15.3616 15.4043 14.9824C15.7835 14.6032 16.0842 14.1531 16.2894 13.6577C16.4946 13.1623 16.6003 12.6313 16.6003 12.0951C16.6003 11.5588 16.4946 11.0278 16.2894 10.5324C16.0842 10.037 15.7835 9.58687 15.4043 9.2077C15.0251 8.82853 14.575 8.52775 14.0796 8.32254C13.5841 8.11734 13.0532 8.01172 12.5169 8.01172C11.434 8.01172 10.3953 8.44193 9.62957 9.2077C8.8638 9.97347 8.43359 11.0121 8.43359 12.0951C8.43359 13.178 8.8638 14.2166 9.62957 14.9824C10.3953 15.7482 11.434 16.1784 12.5169 16.1784Z" stroke="#1E1E1E" stroke-width="1.7" stroke-linejoin="round"/>
</svg>
