<svg width="16" height="16" viewBox="0 0 16 16" fill="none" xmlns="http://www.w3.org/2000/svg">
<path d="M6.64067 6.09116L7.23133 4.02516C7.45267 3.25182 8.54867 3.25182 8.77 4.02516L9.36 6.09116C9.39736 6.22185 9.4674 6.34087 9.56351 6.43698C9.65962 6.5331 9.77864 6.60314 9.90933 6.64049L11.9753 7.23049C12.7487 7.45182 12.7487 8.54782 11.9753 8.76916L9.90933 9.35916C9.77864 9.39651 9.65962 9.46655 9.56351 9.56267C9.4674 9.65878 9.39736 9.7778 9.36 9.90849L8.77 11.9745C8.54867 12.7478 7.45267 12.7478 7.23133 11.9745L6.64133 9.90849C6.60398 9.7778 6.53394 9.65878 6.43782 9.56267C6.34171 9.46655 6.22269 9.39651 6.092 9.35916L4.026 8.76916C3.25267 8.54782 3.25267 7.45182 4.026 7.23049L6.092 6.64049C6.22269 6.60314 6.34171 6.5331 6.43782 6.43698C6.53394 6.34087 6.60398 6.22185 6.64133 6.09116M12.07 11.0045C12.2627 10.4425 13.0727 10.4418 13.2647 11.0045L13.282 11.0625L13.4793 11.8545L14.2713 12.0525C14.9113 12.2125 14.9113 13.1205 14.2713 13.2805L13.4793 13.4785L13.282 14.2705C13.122 14.9098 12.2133 14.9098 12.0533 14.2705L11.8553 13.4785L11.0633 13.2805C10.4233 13.1205 10.4233 12.2118 11.0633 12.0525L11.8553 11.8545L12.0533 11.0625L12.07 11.0045ZM12.6673 12.5312C12.629 12.5825 12.5834 12.6281 12.532 12.6665C12.5834 12.7049 12.629 12.7504 12.6673 12.8018C12.7057 12.7504 12.7513 12.7049 12.8027 12.6665C12.7512 12.6279 12.7057 12.5821 12.6673 12.5305M2.73667 1.67049C2.93533 1.08982 3.79333 1.10916 3.94867 1.72849L4.146 2.52049L4.938 2.71849C5.578 2.87849 5.578 3.78649 4.938 3.94649L4.146 4.14449L3.94867 4.93649C3.78867 5.57582 2.88 5.57582 2.72 4.93649L2.522 4.14449L1.73 3.94649C1.09 3.78649 1.09 2.87782 1.73 2.71849L2.522 2.52049L2.72 1.72849L2.73667 1.67049ZM3.334 3.19782C3.29558 3.24897 3.25001 3.29433 3.19867 3.33249C3.2501 3.37106 3.29568 3.41687 3.334 3.46849C3.37232 3.41687 3.4179 3.37106 3.46933 3.33249C3.41795 3.29412 3.37237 3.24921 3.334 3.19782Z" fill="white"/>
</svg>
