<svg width="16" height="16" viewBox="0 0 16 16" fill="none" xmlns="http://www.w3.org/2000/svg">
<path d="M11.7721 3.53552C9.68941 1.48686 6.31275 1.48686 4.23008 3.53552C3.7356 4.01861 3.34268 4.59568 3.07442 5.2328C2.80616 5.86991 2.66797 6.55423 2.66797 7.24552C2.66797 7.93682 2.80616 8.62113 3.07442 9.25825C3.34268 9.89537 3.7356 10.4724 4.23008 10.9555L8.00075 14.6655L11.7721 10.9555C12.2666 10.4724 12.6595 9.89537 12.9277 9.25825C13.196 8.62113 13.3342 7.93682 13.3342 7.24552C13.3342 6.55423 13.196 5.86991 12.9277 5.2328C12.6595 4.59568 12.2666 4.01861 11.7721 3.53552ZM8.00075 8.99886C7.55541 8.99886 7.13741 8.82552 6.82208 8.51086C6.50991 8.19802 6.3346 7.77413 6.3346 7.33219C6.3346 6.89025 6.50991 6.46636 6.82208 6.15352C7.13675 5.83886 7.55541 5.66552 8.00075 5.66552C8.44608 5.66552 8.86475 5.83886 9.17941 6.15352C9.49158 6.46636 9.6669 6.89025 9.6669 7.33219C9.6669 7.77413 9.49158 8.19802 9.17941 8.51086C8.86475 8.82552 8.44608 8.99886 8.00075 8.99886Z" fill="white"/>
</svg>
