<svg width="20" height="20" viewBox="0 0 20 20" fill="none" xmlns="http://www.w3.org/2000/svg">
<g clip-path="url(#clip0_2656_10496)">
<path d="M4.375 14.375H1.875C1.54348 14.375 1.22554 14.2433 0.991117 14.0089C0.756696 13.7745 0.625 13.4565 0.625 13.125V6.875C0.625 6.54348 0.756696 6.22554 0.991117 5.99112C1.22554 5.7567 1.54348 5.625 1.875 5.625H18.125C18.4565 5.625 18.7745 5.7567 19.0089 5.99112C19.2433 6.22554 19.375 6.54348 19.375 6.875V13.125C19.375 13.4565 19.2433 13.7745 19.0089 14.0089C18.7745 14.2433 18.4565 14.375 18.125 14.375H15.625M3.125 8.125H4.375" stroke="#787777" stroke-width="1.5" stroke-linecap="round" stroke-linejoin="round"/>
<path d="M6.875 13.125H13.125M6.875 15.625H11.25M4.375 10.625H15.625V19.375H4.375V10.625ZM15.625 5.625H4.375V1.875C4.375 1.54348 4.5067 1.22554 4.74112 0.991117C4.97554 0.756696 5.29348 0.625 5.625 0.625H14.375C14.7065 0.625 15.0245 0.756696 15.2589 0.991117C15.4933 1.22554 15.625 1.54348 15.625 1.875V5.625Z" stroke="#787777" stroke-width="1.5" stroke-linecap="round" stroke-linejoin="round"/>
</g>
<defs>
<clipPath id="clip0_2656_10496">
<rect width="20" height="20" fill="white"/>
</clipPath>
</defs>
</svg>
