<svg width="24" height="24" viewBox="0 0 24 24" fill="none" xmlns="http://www.w3.org/2000/svg">
<path d="M9.30808 15.0282L10.3417 18.6437C10.7291 19.9971 12.6471 19.9971 13.0344 18.6437L14.0669 15.0282C14.1323 14.7995 14.2549 14.5913 14.4231 14.4231C14.5913 14.2549 14.7995 14.1323 15.0282 14.0669L18.6437 13.0344C19.9971 12.6471 19.9971 10.7291 18.6437 10.3417L15.0282 9.30925C14.7995 9.24388 14.5913 9.12131 14.4231 8.95311C14.2549 8.78491 14.1323 8.57663 14.0669 8.34792L13.0344 4.73242C12.6471 3.37908 10.7291 3.37908 10.3417 4.73242L9.30925 8.34792C9.24388 8.57663 9.12131 8.78491 8.95311 8.95311C8.78491 9.12131 8.57663 9.24388 8.34792 9.30925L4.73242 10.3417C3.37908 10.7291 3.37908 12.6471 4.73242 13.0344L8.34792 14.0669C8.57663 14.1323 8.78491 14.2549 8.95311 14.4231C9.12131 14.5913 9.24388 14.7995 9.30925 15.0282M2.85642 20.6901L3.29508 22.4494C3.35342 22.6851 3.68942 22.6851 3.74775 22.4494L4.18758 20.6901C4.19789 20.6492 4.21905 20.612 4.24884 20.5822C4.27862 20.5524 4.31591 20.5312 4.35675 20.5209L6.11608 20.0811C6.35175 20.0227 6.35175 19.6879 6.11608 19.6284L4.35675 19.1886C4.31591 19.1783 4.27862 19.1571 4.24884 19.1273C4.21905 19.0975 4.19789 19.0603 4.18758 19.0194L3.74775 17.2601C3.68942 17.0244 3.35342 17.0244 3.29508 17.2601L2.85525 19.0194C2.84495 19.0603 2.82378 19.0975 2.794 19.1273C2.76421 19.1571 2.72692 19.1783 2.68608 19.1886L0.92675 19.6284C0.691083 19.6867 0.691083 20.0216 0.92675 20.0811L2.68608 20.5209C2.72692 20.5312 2.76421 20.5524 2.794 20.5822C2.82378 20.612 2.84611 20.6492 2.85642 20.6901ZM19.1897 4.35675L19.6284 6.11608C19.6867 6.35175 20.0216 6.35175 20.0811 6.11608L20.5209 4.35675C20.5312 4.31591 20.5524 4.27862 20.5822 4.24884C20.612 4.21905 20.6492 4.19789 20.6901 4.18758L22.4494 3.74775C22.6851 3.68942 22.6851 3.35342 22.4494 3.29508L20.6901 2.85525C20.6492 2.84495 20.612 2.82378 20.5822 2.794C20.5524 2.76421 20.5312 2.72692 20.5209 2.68608L20.0811 0.92675C20.0227 0.691083 19.6879 0.691083 19.6284 0.92675L19.1886 2.68608C19.1783 2.72692 19.1571 2.76421 19.1273 2.794C19.0975 2.82378 19.0603 2.84495 19.0194 2.85525L17.2601 3.29508C17.0244 3.35342 17.0244 3.68942 17.2601 3.74775L19.0194 4.18758C19.0603 4.19789 19.0975 4.21905 19.1273 4.24884C19.1571 4.27862 19.1794 4.31591 19.1897 4.35675Z" stroke="#1E1E1E" stroke-width="1.5" stroke-miterlimit="10" stroke-linecap="round" stroke-linejoin="round"/>
</svg>
